<?xml version="1.0" encoding="UTF-8"?>
<svg width="200px" height="44px" viewBox="0 0 200 44" version="1.1" xmlns="http://www.w3.org/2000/svg" xmlns:xlink="http://www.w3.org/1999/xlink">
    <!-- Generator: sketchtool 53.1 (72631) - https://sketchapp.com -->
    <title>AD2A41B6-2DD2-42C1-868D-7D8E89D24F03</title>
    <desc>Created with sketchtool.</desc>
    <g id="New-onboarding" stroke="none" stroke-width="1" fill="none" fill-rule="evenodd">
        <g id="New-1920px---Section-3---Votre-société" transform="translate(-50.000000, -22.000000)" fill="#FFFFFF">
            <g id="Top-Bar">
                <g id="Logo-/-Big-White---Footer" transform="translate(50.000000, 22.000000)">
                    <g id="logotype">
                        <g fill-rule="nonzero">
                            <path d="M169.207161,14.0697674 C166.905371,16.8325581 161.943734,23.1767442 159.232737,29.2651163 L151.662404,21.5395349 L153.606138,20.055814 L157.902813,22.8697674 C157.902813,22.8697674 161.636829,18.0093023 168.439898,13.3023256 C166.189258,11.2046512 163.017903,9.8744186 159.079284,9.8744186 C150.895141,9.8744186 145.984655,15.7069767 145.984655,22.5116279 C145.984655,29.3162791 150.895141,35.2 159.079284,35.2 C167.365729,35.2 172.276215,29.3162791 172.276215,22.5116279 C172.225064,19.2883721 171.150895,16.3209302 169.207161,14.0697674 Z" id="Shape"></path>
                            <path d="M0.255754476,29.827907 L4.80818414,23.1255814 C7.21227621,25.5302326 10.8951407,27.5255814 15.4987212,27.5255814 C18.4143223,27.5255814 20.2046036,26.5023256 20.2046036,24.8651163 C20.2046036,20.4651163 1.38107417,24.0976744 1.38107417,11.3069767 C1.38107417,5.73023256 6.08695652,0.71627907 14.5780051,0.71627907 C19.8976982,0.71627907 24.5524297,2.30232558 28.0818414,5.37209302 L23.3759591,11.8186047 C20.5626598,9.46511628 16.9309463,8.33953488 13.657289,8.33953488 C11.1508951,8.33953488 10.0767263,9.20930233 10.0767263,10.6418605 C10.0767263,14.7348837 28.9002558,11.6651163 28.9002558,23.9953488 C28.9002558,30.6976744 23.9386189,35.0976744 15.0383632,35.0976744 C8.28644501,35.1488372 3.58056266,33 0.255754476,29.827907 Z" id="Shape"></path>
                            <path d="M30.0255754,4.55348837 C30.0255754,2.09767442 31.9693095,0.153488372 34.4245524,0.153488372 C36.8797954,0.153488372 38.8746803,2.09767442 38.8746803,4.55348837 C38.8746803,7.00930233 36.8797954,9.00465116 34.4245524,9.00465116 C31.9693095,9.00465116 30.0255754,7.00930233 30.0255754,4.55348837 Z" id="Shape"></path>
                            <polygon id="Rectangle-path" points="30.5882353 10.4372093 38.2608696 10.4372093 38.2608696 34.5348837 30.5882353 34.5348837"></polygon>
                            <path d="M71.4578005,34.5348837 L71.4578005,19.8511628 C71.4578005,18.0093023 70.5370844,16.627907 68.286445,16.627907 C66.1892583,16.627907 64.7058824,17.9581395 63.9386189,18.9813953 L63.9386189,34.5348837 L56.2659847,34.5348837 L56.2659847,19.8511628 C56.2659847,18.0093023 55.3964194,16.627907 53.1457801,16.627907 C51.0485934,16.627907 49.6163683,17.9581395 48.797954,18.9813953 L48.797954,34.5348837 L41.1253197,34.5348837 L41.1253197,10.4372093 L48.797954,10.4372093 L48.797954,13.4046512 C49.8209719,12.0232558 52.9411765,9.8744186 56.7263427,9.8744186 C60.2046036,9.8744186 62.5575448,11.3069767 63.5805627,14.172093 C64.9616368,12.0744186 68.1329923,9.8744186 71.9181586,9.8744186 C76.3682864,9.8744186 79.1304348,12.1767442 79.1304348,17.0883721 L79.1304348,34.5348837 L71.4578005,34.5348837 Z" id="Shape"></path>
                            <path d="M88.9514066,31.7209302 L88.9514066,43.744186 L81.2787724,43.744186 L81.2787724,10.4372093 L88.9514066,10.4372093 L88.9514066,13.2511628 C90.8439898,10.9488372 93.3503836,9.8744186 96.0613811,9.8744186 C102.097187,9.8744186 106.649616,14.3767442 106.649616,22.5116279 C106.649616,30.6976744 102.097187,35.2 96.0613811,35.2 C93.4015345,35.1488372 90.9462916,34.0744186 88.9514066,31.7209302 Z M98.8235294,22.4604651 C98.8235294,18.8790698 96.5217391,16.627907 93.5549872,16.627907 C91.9181586,16.627907 89.9232737,17.5488372 88.9514066,18.827907 L88.9514066,26.144186 C89.9232737,27.372093 91.9181586,28.344186 93.5549872,28.344186 C96.5217391,28.344186 98.8235294,26.0930233 98.8235294,22.4604651 Z" id="Shape"></path>
                            <polygon id="Shape" points="108.59335 34.5348837 108.59335 0.562790698 116.265985 0.562790698 116.265985 34.5348837"></polygon>
                            <path d="M117.851662,4.55348837 C117.851662,2.09767442 119.795396,0.153488372 122.250639,0.153488372 C124.705882,0.153488372 126.700767,2.09767442 126.700767,4.55348837 C126.700767,7.00930233 124.705882,9.00465116 122.250639,9.00465116 C119.795396,9.00465116 117.851662,7.00930233 117.851662,4.55348837 Z" id="Shape"></path>
                            <polygon id="Rectangle-path" points="118.363171 10.4372093 126.035806 10.4372093 126.035806 34.5348837 118.363171 34.5348837"></polygon>
                            <path d="M131.867008,28.0372093 L131.867008,17.0883721 L127.877238,17.0883721 L127.877238,10.4372093 L131.867008,10.4372093 L131.867008,0.409302326 L139.539642,0.409302326 L139.539642,10.4372093 L149.258312,10.4372093 L144.398977,17.0883721 L139.488491,17.0883721 L139.488491,25.9395349 C139.488491,27.3209302 140.306905,28.3953488 141.585678,28.3953488 C142.455243,28.3953488 143.98977,27.4232558 144.245524,27.1162791 L147.109974,31.5162791 C146.138107,32.4372093 142.915601,35.2 139.335038,35.2 C134.526854,35.1488372 131.867008,32.6930233 131.867008,28.0372093 Z" id="Shape"></path>
                            <path d="M173.350384,22.4604651 C173.350384,15.655814 178.26087,9.82325581 186.445013,9.82325581 C194.731458,9.82325581 199.590793,15.655814 199.590793,22.4604651 C199.590793,29.2651163 194.680307,35.1488372 186.445013,35.1488372 C178.209719,35.1488372 173.350384,29.2651163 173.350384,22.4604651 Z M191.713555,22.4604651 C191.713555,19.2883721 189.820972,16.627907 186.445013,16.627907 C183.171355,16.627907 181.278772,19.2883721 181.278772,22.4604651 C181.278772,25.6837209 183.171355,28.344186 186.445013,28.344186 C189.769821,28.344186 191.713555,25.6837209 191.713555,22.4604651 Z" id="Shape"></path>
                        </g>
                    </g>
                </g>
            </g>
        </g>
    </g>
</svg>